<svg width="48" height="48" viewBox="0 0 48 48" fill="none" xmlns="http://www.w3.org/2000/svg">
  <defs>
    <linearGradient id="logo-gradient" x1="0%" y1="0%" x2="100%" y2="100%">
      <stop offset="0%" stop-color="#FF6B9D" />
      <stop offset="25%" stop-color="#C44569" />
      <stop offset="50%" stop-color="#A06CD5" />
      <stop offset="75%" stop-color="#6C5CE7" />
      <stop offset="100%" stop-color="#4834DF" />
    </linearGradient>
    <linearGradient id="glow-gradient" x1="0%" y1="0%" x2="100%" y2="100%">
      <stop offset="0%" stop-color="#FF6B9D" stop-opacity="0.3" />
      <stop offset="50%" stop-color="#A06CD5" stop-opacity="0.2" />
      <stop offset="100%" stop-color="#4834DF" stop-opacity="0.3" />
    </linearGradient>
  </defs>

  <path
    d="M 24 8
       C 22.8 8.1, 21.5 8.3, 20.3 8.9
       C 18.2 9.8, 16.4 11.2, 15 13
       C 13.3 15.2, 12.1 17.8, 11.5 20.5
       C 11.2 21.8, 11 23.2, 11 24.5
       L 11 32
       C 11.1 32.8, 11.5 33.5, 12.2 33.8
       L 16 35.5
       L 16 38
       C 16 38.9, 16.4 39.7, 17.1 40.2
       L 24 44
       L 30.9 40.2
       C 31.6 39.7, 32 38.9, 32 38
       L 32 35.5
       L 35.8 33.8
       C 36.5 33.5, 36.9 32.8, 37 32
       L 37 24.5
       C 37 23.2, 36.8 21.8, 36.5 20.5
       C 35.9 17.8, 34.7 15.2, 33 13
       C 31.6 11.2, 29.8 9.8, 27.7 8.9
       C 26.5 8.3, 25.2 8.1, 24 8 Z"
    stroke="url(#logo-gradient)"
    stroke-width="1.8"
    fill="none"
    stroke-linecap="round"
    stroke-linejoin="round"
  />

  <ellipse cx="24" cy="22" rx="8.5" ry="9" fill="url(#glow-gradient)" opacity="0.15" />

  <path
    d="M 19.8 20.5
       C 19.3 20.4, 18.8 20.7, 18.6 21.2
       C 18.4 21.6, 18.4 22.1, 18.7 22.5
       C 19 22.9, 19.5 23.1, 20 23
       C 20.5 22.9, 20.9 22.5, 21 22
       C 21.1 21.4, 20.8 20.8, 20.2 20.6
       C 20.1 20.5, 19.9 20.5, 19.8 20.5 Z"
    fill="url(#logo-gradient)"
  />

  <path
    d="M 28.2 20.5
       C 27.7 20.5, 27.3 20.8, 27.1 21.3
       C 26.9 21.7, 27 22.2, 27.3 22.6
       C 27.6 23, 28.1 23.2, 28.6 23
       C 29.1 22.8, 29.4 22.3, 29.4 21.8
       C 29.4 21.2, 29 20.7, 28.4 20.5
       C 28.3 20.5, 28.2 20.5, 28.2 20.5 Z"
    fill="url(#logo-gradient)"
  />

  <path
    d="M 20 27.5 Q 22 27.8, 24 27.5 Q 26 27.3, 28 27.5"
    stroke="url(#logo-gradient)"
    stroke-width="1"
    stroke-linecap="round"
    fill="none"
    opacity="0.4"
  />

  <path
    d="M 16 14 Q 18 12.5, 20 12 M 28 12 Q 30 12.5, 32 14"
    stroke="url(#logo-gradient)"
    stroke-width="0.8"
    stroke-linecap="round"
    opacity="0.2"
  />

  <g opacity="0.5">
    <line x1="13" y1="19" x2="16" y2="19" stroke="url(#logo-gradient)" stroke-width="0.6" />
    <line x1="32" y1="21" x2="35" y2="21" stroke="url(#logo-gradient)" stroke-width="0.5" />
    <line x1="14" y1="26" x2="15.5" y2="26" stroke="url(#logo-gradient)" stroke-width="0.7" />
    <line x1="32.5" y1="28" x2="34" y2="28" stroke="url(#logo-gradient)" stroke-width="0.6" />
  </g>

  <line x1="12" y1="24" x2="36" y2="24" stroke="url(#logo-gradient)" stroke-width="0.3" opacity="0.3" />
</svg>
